<svg width="40" height="39" viewBox="0 0 40 39" fill="none" xmlns="http://www.w3.org/2000/svg">
<g filter="url(#filter0_d_2_216)">
<rect x="1.5" width="37" height="37" rx="18.5" fill="#FDF2FA"/>
<path d="M25 18.1667H22.35C22 17.2 21.0833 16.5 20 16.5C18.9167 16.5 18 17.2 17.65 18.1667H15C14.725 18.1667 13.3333 18.0834 13.3333 16.5V15.6667C13.3333 14.1417 14.6167 14 15 14H23.4833C23.8333 14.9667 24.75 15.6667 25.8333 15.6667C26.4964 15.6667 27.1323 15.4033 27.6011 14.9345C28.0699 14.4656 28.3333 13.8297 28.3333 13.1667C28.3333 12.5036 28.0699 11.8678 27.6011 11.3989C27.1323 10.9301 26.4964 10.6667 25.8333 10.6667C24.75 10.6667 23.8333 11.3667 23.4833 12.3334H15C13.6583 12.3334 11.6667 13.2167 11.6667 15.6667V16.5C11.6667 18.95 13.6583 19.8334 15 19.8334H17.65C18 20.8 18.9167 21.5 20 21.5C21.0833 21.5 22 20.8 22.35 19.8334H25C25.275 19.8334 26.6667 19.9167 26.6667 21.5V22.3334C26.6667 23.8584 25.3833 24 25 24H16.5167C16.1667 23.0334 15.25 22.3334 14.1667 22.3334C13.5036 22.3334 12.8677 22.5967 12.3989 23.0656C11.9301 23.5344 11.6667 24.1703 11.6667 24.8334C11.6667 25.4964 11.9301 26.1323 12.3989 26.6011C12.8677 27.07 13.5036 27.3334 14.1667 27.3334C15.25 27.3334 16.1667 26.6334 16.5167 25.6667H25C26.3417 25.6667 28.3333 24.775 28.3333 22.3334V21.5C28.3333 19.0584 26.3417 18.1667 25 18.1667ZM25.8333 12.3334C26.0544 12.3334 26.2663 12.4212 26.4226 12.5774C26.5789 12.7337 26.6667 12.9457 26.6667 13.1667C26.6667 13.3877 26.5789 13.5997 26.4226 13.7559C26.2663 13.9122 26.0544 14 25.8333 14C25.6123 14 25.4004 13.9122 25.2441 13.7559C25.0878 13.5997 25 13.3877 25 13.1667C25 12.9457 25.0878 12.7337 25.2441 12.5774C25.4004 12.4212 25.6123 12.3334 25.8333 12.3334ZM14.1667 25.6667C13.9457 25.6667 13.7337 25.5789 13.5774 25.4226C13.4211 25.2663 13.3333 25.0544 13.3333 24.8334C13.3333 24.6123 13.4211 24.4004 13.5774 24.2441C13.7337 24.0878 13.9457 24 14.1667 24C14.3877 24 14.5996 24.0878 14.7559 24.2441C14.9122 24.4004 15 24.6123 15 24.8334C15 25.0544 14.9122 25.2663 14.7559 25.4226C14.5996 25.5789 14.3877 25.6667 14.1667 25.6667Z" fill="#851651"/>
</g>
<defs>
<filter id="filter0_d_2_216" x="0.5" y="0" width="39" height="39" filterUnits="userSpaceOnUse" color-interpolation-filters="sRGB">
<feFlood flood-opacity="0" result="BackgroundImageFix"/>
<feColorMatrix in="SourceAlpha" type="matrix" values="0 0 0 0 0 0 0 0 0 0 0 0 0 0 0 0 0 0 127 0" result="hardAlpha"/>
<feOffset dy="1"/>
<feGaussianBlur stdDeviation="0.5"/>
<feComposite in2="hardAlpha" operator="out"/>
<feColorMatrix type="matrix" values="0 0 0 0 0 0 0 0 0 0 0 0 0 0 0 0 0 0 0.1 0"/>
<feBlend mode="normal" in2="BackgroundImageFix" result="effect1_dropShadow_2_216"/>
<feBlend mode="normal" in="SourceGraphic" in2="effect1_dropShadow_2_216" result="shape"/>
</filter>
</defs>
</svg>
