<svg width="40" height="39" viewBox="0 0 40 39" fill="none" xmlns="http://www.w3.org/2000/svg">
<g filter="url(#filter0_d_2_224)">
<rect x="1.5" width="37" height="37" rx="18.5" fill="#ECFDF3"/>
<path d="M20 10.6667C16.775 10.6667 14.1667 13.275 14.1667 16.5C14.1667 18.4834 15.1583 20.225 16.6667 21.2834V23.1667C16.6667 23.625 17.0417 24 17.5 24H22.5C22.9583 24 23.3333 23.625 23.3333 23.1667V21.2834C24.8417 20.225 25.8333 18.4834 25.8333 16.5C25.8333 13.275 23.225 10.6667 20 10.6667ZM21.6667 20.3167V22.3334H20.8333V18.5084L22.2583 17.0917C22.5833 16.7667 22.5833 16.2334 22.2583 15.9084C21.9333 15.5834 21.4 15.5834 21.075 15.9084L20 16.9917L18.925 15.9084C18.6 15.5834 18.0667 15.5834 17.7417 15.9084C17.4167 16.2334 17.4167 16.7667 17.7417 17.0917L19.1667 18.5084V22.3334H18.3333V20.3167C16.8583 19.675 15.8333 18.2084 15.8333 16.5C15.8333 14.2 17.7 12.3334 20 12.3334C22.3 12.3334 24.1667 14.2 24.1667 16.5C24.1667 18.2084 23.1417 19.675 21.6667 20.3167ZM17.5 25.6667H22.5V26.5C22.5 26.9584 22.125 27.3334 21.6667 27.3334H18.3333C17.875 27.3334 17.5 26.9584 17.5 26.5V25.6667Z" fill="#054F31"/>
</g>
<defs>
<filter id="filter0_d_2_224" x="0.5" y="0" width="39" height="39" filterUnits="userSpaceOnUse" color-interpolation-filters="sRGB">
<feFlood flood-opacity="0" result="BackgroundImageFix"/>
<feColorMatrix in="SourceAlpha" type="matrix" values="0 0 0 0 0 0 0 0 0 0 0 0 0 0 0 0 0 0 127 0" result="hardAlpha"/>
<feOffset dy="1"/>
<feGaussianBlur stdDeviation="0.5"/>
<feComposite in2="hardAlpha" operator="out"/>
<feColorMatrix type="matrix" values="0 0 0 0 0 0 0 0 0 0 0 0 0 0 0 0 0 0 0.1 0"/>
<feBlend mode="normal" in2="BackgroundImageFix" result="effect1_dropShadow_2_224"/>
<feBlend mode="normal" in="SourceGraphic" in2="effect1_dropShadow_2_224" result="shape"/>
</filter>
</defs>
</svg>
